<?xml version="1.0" encoding="UTF-8"?>
<svg xmlns="http://www.w3.org/2000/svg" xmlns:xlink="http://www.w3.org/1999/xlink" width="152px" height="152px" viewBox="0 0 152 152" version="1.1">
<g id="surface1">
<path style=" stroke:none;fill-rule:nonzero;fill:rgb(100%,100%,100%);fill-opacity:1;" d="M 13.984375 117.894531 C 10.332031 117.894531 7.496094 117.625 5.476562 117.082031 L 5.476562 108.339844 C 7.339844 108.652344 9.128906 108.808594 10.835938 108.808594 C 13.632812 108.808594 15.652344 108.300781 16.898438 107.292969 C 18.21875 106.203125 19.035156 104.960938 19.34375 103.5625 C 19.65625 102.085938 19.8125 100.222656 19.8125 97.96875 L 19.8125 35.972656 L 31.8125 35.972656 L 31.8125 101.117188 C 31.8125 105.542969 30.648438 109.46875 28.316406 112.886719 C 26.066406 116.226562 21.285156 117.894531 13.984375 117.894531 Z M 74.984375 85.964844 L 61.582031 85.964844 L 61.582031 117.546875 L 49.578125 117.546875 L 49.578125 35.972656 L 78.128906 35.972656 C 84.734375 35.972656 90.171875 37.214844 94.445312 39.703125 C 98.71875 42.109375 101.824219 45.21875 103.765625 49.023438 C 105.707031 52.832031 106.679688 56.871094 106.679688 61.144531 C 106.679688 66.738281 105.085938 71.75 101.902344 76.175781 C 98.71875 80.605469 93.824219 83.558594 87.21875 85.035156 L 107.726562 117.546875 L 94.675781 117.546875 Z M 61.582031 75.828125 L 76.496094 75.828125 C 81.703125 75.828125 86.09375 74.738281 89.667969 72.566406 C 93.238281 70.3125 95.027344 66.503906 95.027344 61.144531 C 95.027344 55.863281 93.238281 52.132812 89.667969 49.957031 C 86.09375 47.78125 81.703125 46.695312 76.496094 46.695312 L 61.582031 46.695312 Z M 129.105469 118.363281 C 126.929688 118.363281 125.105469 117.625 123.628906 116.148438 C 122.230469 114.671875 121.53125 112.886719 121.53125 110.789062 C 121.53125 108.691406 122.230469 106.941406 123.628906 105.542969 C 125.105469 104.066406 126.929688 103.328125 129.105469 103.328125 C 131.28125 103.328125 133.066406 104.066406 134.464844 105.542969 C 135.941406 106.941406 136.679688 108.691406 136.679688 110.789062 C 136.679688 112.886719 135.941406 114.671875 134.464844 116.148438 C 133.066406 117.625 131.28125 118.363281 129.105469 118.363281 Z M 129.105469 118.363281 "/>
</g>
</svg>
